<svg xmlns="http://www.w3.org/2000/svg" width="32" height="32"><g fill="#3391c4"><path d="M21.49 3a.5.5 0 1 1 0 1 .5.5 0 0 1 0-1Zm-5.63 5.79-.37-.18a.198.198 0 0 1-.11-.11l-.18-.37c-.09-.18-.34-.18-.42 0l-.16.34c-.02.05-.06.09-.11.11l-.39.19c-.17.09-.17.34 0 .42l.36.17c.05.02.09.06.11.11l.19.39c.09.17.33.17.42 0l.18-.37c.02-.05.06-.09.11-.11l.37-.18c.18-.08.18-.33 0-.41Zm-5.07 10.39-.56-.27a.312.312 0 0 1-.16-.16l-.26-.55c-.13-.26-.51-.26-.63 0l-.24.52c-.03.07-.09.13-.16.16l-.59.29c-.26.13-.26.5 0 .63l.53.25c.07.03.13.09.16.16l.29.58c.13.26.5.26.63 0l.27-.56c.03-.07.09-.13.16-.16l.56-.27c.27-.12.27-.5 0-.62ZM22.86 6.79l-.37-.18a.198.198 0 0 1-.11-.11l-.18-.37c-.09-.18-.34-.18-.42 0l-.16.34c-.02.05-.06.09-.11.11l-.39.19c-.17.09-.17.34 0 .42l.36.17c.05.02.09.06.11.11l.19.39c.09.17.33.17.42 0l.18-.37c.02-.05.06-.09.11-.11l.37-.18c.18-.08.18-.33 0-.41Zm-8 10-.37-.18a.198.198 0 0 1-.11-.11l-.18-.37c-.09-.18-.34-.18-.42 0l-.16.34c-.02.05-.06.09-.11.11l-.39.19c-.17.09-.17.34 0 .42l.36.17c.05.02.09.06.11.11l.19.39c.09.17.33.17.42 0l.18-.37c.02-.05.06-.09.11-.11l.37-.18c.18-.08.18-.33 0-.41ZM18.49 12a.5.5 0 1 0 0-1 .5.5 0 0 0 0 1Zm-8 2a.5.5 0 1 0 0-1 .5.5 0 0 0 0 1Zm-4.5 9.5a.5.5 0 1 1-1 0 .5.5 0 0 1 1 0Zm15.5-5.89.37.18c.18.08.18.33 0 .41l-.37.18c-.05.02-.09.06-.11.11l-.18.37c-.09.17-.33.17-.42 0l-.19-.39a.198.198 0 0 0-.11-.11l-.36-.17c-.17-.08-.17-.33 0-.42l.39-.19c.05-.02.09-.06.11-.11l.16-.34c.08-.18.33-.18.42 0l.18.37c.02.05.06.09.11.11Zm-2.5 5.89a.5.5 0 1 1-1 0 .5.5 0 0 1 1 0Zm8-12a.5.5 0 1 1-1 0 .5.5 0 0 1 1 0Z"/><path d="M5.67 1h20.66A4.666 4.666 0 0 1 31 5.67v20.66A4.666 4.666 0 0 1 26.33 31H5.67A4.666 4.666 0 0 1 1 26.33V5.67A4.666 4.666 0 0 1 5.67 1Zm9.84 2c-2.472 2.582-4.254 5.099-5.84 7.34-2.147 3.046-3.85 5.454-6.67 7.355v8.635a2.663 2.663 0 0 0 1.058 2.13c7.328-3.237 10.605-7.853 13.782-12.35 2.745-3.889 5.354-7.577 11.047-11.214A2.666 2.666 0 0 0 26.33 3H15.51ZM29 6.836C22.749 11.201 17.201 17.756 14.518 29h4.12c2.11-8.134 5.868-13.396 10.362-17.14V6.836ZM7.99 5.5a.5.5 0 1 0-1 0 .5.5 0 0 0 1 0Zm18 14a.5.5 0 1 0-1 0 .5.5 0 0 0 1 0Zm-3.5 6.5a.5.5 0 1 0 0-1 .5.5 0 0 0 0 1Zm5.5-1.5a.5.5 0 1 0-1 0 .5.5 0 0 0 1 0ZM4.49 11a.5.5 0 1 0 0-1 .5.5 0 0 0 0 1Z"/></g></svg>