<svg xmlns="http://www.w3.org/2000/svg" width="64" height="64" viewBox="0 0 32 32"><g fill="none"><path fill="#37313B" d="M26.33 30H5.67C3.64 30 2 28.36 2 26.33V5.67C2 3.64 3.64 2 5.67 2h20.66C28.36 2 30 3.64 30 5.67v20.66c0 2.03-1.64 3.67-3.67 3.67Z"/><path fill="url(#a)" d="M26.33 30H5.67C3.64 30 2 28.36 2 26.33V5.67C2 3.64 3.64 2 5.67 2h20.66C28.36 2 30 3.64 30 5.67v20.66c0 2.03-1.64 3.67-3.67 3.67Z"/><path fill="url(#b)" d="M26.33 30H5.67C3.64 30 2 28.36 2 26.33V5.67C2 3.64 3.64 2 5.67 2h20.66C28.36 2 30 3.64 30 5.67v20.66c0 2.03-1.64 3.67-3.67 3.67Z"/><path fill="url(#c)" d="M26.33 30H5.67C3.64 30 2 28.36 2 26.33V5.67C2 3.64 3.64 2 5.67 2h20.66C28.36 2 30 3.64 30 5.67v20.66c0 2.03-1.64 3.67-3.67 3.67Z"/><path fill="url(#d)" d="M29.753 4.343A3.667 3.667 0 0 0 26.33 2H16.5c-3 2.93-5.04 5.81-6.83 8.34-2.39 3.39-4.23 5.99-7.67 7.98v8.01a3.658 3.658 0 0 0 1.04 2.56c8.05-3.25 11.48-8.08 14.8-12.78 2.88-4.08 5.61-7.94 11.91-11.75l.003-.017Z"/><path fill="#3C94C6" d="M14.29 30h4.1c2.2-9.32 6.49-15.01 11.61-18.94v-4.9C23.16 10.64 17.01 17.53 14.29 30Z"/><path fill="url(#e)" d="M14.29 30h4.1c2.2-9.32 6.49-15.01 11.61-18.94v-4.9C23.16 10.64 17.01 17.53 14.29 30Z"/><path fill="url(#f)" d="M7.49 6a.5.5 0 1 0 0-1 .5.5 0 0 0 0 1Z"/><path fill="url(#g)" d="M25.49 20a.5.5 0 1 0 0-1 .5.5 0 0 0 0 1Z"/><path fill="url(#h)" d="M22.49 26a.5.5 0 1 0 0-1 .5.5 0 0 0 0 1Z"/><path fill="url(#i)" d="M27.49 25a.5.5 0 1 0 0-1 .5.5 0 0 0 0 1Z"/><path fill="url(#j)" d="M4.49 11a.5.5 0 1 0 0-1 .5.5 0 0 0 0 1Z"/><g filter="url(#k)"><path fill="#E8BD41" d="m10.79 19.18-.56-.27a.312.312 0 0 1-.16-.16l-.26-.55c-.13-.26-.51-.26-.63 0l-.24.52c-.03.07-.09.13-.16.16l-.59.29c-.26.13-.26.5 0 .63l.53.25c.07.03.13.09.16.16l.29.58c.13.26.5.26.63 0l.27-.56c.03-.07.09-.13.16-.16l.56-.27c.27-.12.27-.5 0-.62Z"/><path fill="url(#l)" d="m10.79 19.18-.56-.27a.312.312 0 0 1-.16-.16l-.26-.55c-.13-.26-.51-.26-.63 0l-.24.52c-.03.07-.09.13-.16.16l-.59.29c-.26.13-.26.5 0 .63l.53.25c.07.03.13.09.16.16l.29.58c.13.26.5.26.63 0l.27-.56c.03-.07.09-.13.16-.16l.56-.27c.27-.12.27-.5 0-.62Z"/><path fill="url(#m)" d="m10.79 19.18-.56-.27a.312.312 0 0 1-.16-.16l-.26-.55c-.13-.26-.51-.26-.63 0l-.24.52c-.03.07-.09.13-.16.16l-.59.29c-.26.13-.26.5 0 .63l.53.25c.07.03.13.09.16.16l.29.58c.13.26.5.26.63 0l.27-.56c.03-.07.09-.13.16-.16l.56-.27c.27-.12.27-.5 0-.62Z"/></g><g filter="url(#n)"><path fill="#E8BD41" d="m15.86 8.79-.37-.18a.198.198 0 0 1-.11-.11l-.18-.37c-.09-.18-.34-.18-.42 0l-.16.34c-.02.05-.06.09-.11.11l-.39.19c-.17.09-.17.34 0 .42l.36.17c.05.02.09.06.11.11l.19.39c.09.17.33.17.42 0l.18-.37c.02-.05.06-.09.11-.11l.37-.18c.18-.08.18-.33 0-.41Z"/><path fill="url(#o)" d="m15.86 8.79-.37-.18a.198.198 0 0 1-.11-.11l-.18-.37c-.09-.18-.34-.18-.42 0l-.16.34c-.02.05-.06.09-.11.11l-.39.19c-.17.09-.17.34 0 .42l.36.17c.05.02.09.06.11.11l.19.39c.09.17.33.17.42 0l.18-.37c.02-.05.06-.09.11-.11l.37-.18c.18-.08.18-.33 0-.41Z"/><path fill="url(#p)" d="m15.86 8.79-.37-.18a.198.198 0 0 1-.11-.11l-.18-.37c-.09-.18-.34-.18-.42 0l-.16.34c-.02.05-.06.09-.11.11l-.39.19c-.17.09-.17.34 0 .42l.36.17c.05.02.09.06.11.11l.19.39c.09.17.33.17.42 0l.18-.37c.02-.05.06-.09.11-.11l.37-.18c.18-.08.18-.33 0-.41Z"/></g><g filter="url(#q)"><path fill="#E8BD41" d="m21.86 17.79-.37-.18a.198.198 0 0 1-.11-.11l-.18-.37c-.09-.18-.34-.18-.42 0l-.16.34c-.02.05-.06.09-.11.11l-.39.19c-.17.09-.17.34 0 .42l.36.17c.05.02.09.06.11.11l.19.39c.09.17.33.17.42 0l.18-.37c.02-.05.06-.09.11-.11l.37-.18c.18-.08.18-.33 0-.41Z"/><path fill="url(#r)" d="m21.86 17.79-.37-.18a.198.198 0 0 1-.11-.11l-.18-.37c-.09-.18-.34-.18-.42 0l-.16.34c-.02.05-.06.09-.11.11l-.39.19c-.17.09-.17.34 0 .42l.36.17c.05.02.09.06.11.11l.19.39c.09.17.33.17.42 0l.18-.37c.02-.05.06-.09.11-.11l.37-.18c.18-.08.18-.33 0-.41Z"/><path fill="url(#s)" d="m21.86 17.79-.37-.18a.198.198 0 0 1-.11-.11l-.18-.37c-.09-.18-.34-.18-.42 0l-.16.34c-.02.05-.06.09-.11.11l-.39.19c-.17.09-.17.34 0 .42l.36.17c.05.02.09.06.11.11l.19.39c.09.17.33.17.42 0l.18-.37c.02-.05.06-.09.11-.11l.37-.18c.18-.08.18-.33 0-.41Z"/></g><path fill="#4CF0F8" d="m14.86 16.79-.37-.18a.198.198 0 0 1-.11-.11l-.18-.37c-.09-.18-.34-.18-.42 0l-.16.34c-.02.05-.06.09-.11.11l-.39.19c-.17.09-.17.34 0 .42l.36.17c.05.02.09.06.11.11l.19.39c.09.17.33.17.42 0l.18-.37c.02-.05.06-.09.11-.11l.37-.18c.18-.08.18-.33 0-.41Zm8-10-.37-.18a.198.198 0 0 1-.11-.11l-.18-.37c-.09-.18-.34-.18-.42 0l-.16.34c-.02.05-.06.09-.11.11l-.39.19c-.17.09-.17.34 0 .42l.36.17c.05.02.09.06.11.11l.19.39c.09.17.33.17.42 0l.18-.37c.02-.05.06-.09.11-.11l.37-.18c.18-.08.18-.33 0-.41Z"/><path fill="url(#t)" d="M10.49 14a.5.5 0 1 0 0-1 .5.5 0 0 0 0 1Z"/><path fill="url(#u)" d="M5.49 24a.5.5 0 1 0 0-1 .5.5 0 0 0 0 1Z"/><path fill="url(#v)" d="M5.49 24a.5.5 0 1 0 0-1 .5.5 0 0 0 0 1Z"/><path fill="url(#w)" d="M26.49 12a.5.5 0 1 0 0-1 .5.5 0 0 0 0 1Z"/><path fill="url(#x)" d="M26.49 12a.5.5 0 1 0 0-1 .5.5 0 0 0 0 1Z"/><path fill="url(#y)" d="M18.49 24a.5.5 0 1 0 0-1 .5.5 0 0 0 0 1Z"/><path fill="url(#z)" d="M18.49 12a.5.5 0 1 0 0-1 .5.5 0 0 0 0 1Z"/><path fill="url(#A)" d="M21.49 4a.5.5 0 1 0 0-1 .5.5 0 0 0 0 1Z"/><path fill="url(#B)" d="M21.49 4a.5.5 0 1 0 0-1 .5.5 0 0 0 0 1Z"/><defs><radialGradient id="e" cx="0" cy="0" r="1" gradientTransform="matrix(7.855 -1.65312 2.26488 10.76186 14.29 29.607)" gradientUnits="userSpaceOnUse"><stop offset=".118" stop-color="#40295D"/><stop offset="1" stop-color="#40295D" stop-opacity="0"/></radialGradient><radialGradient id="f" cx="0" cy="0" r="1" gradientTransform="rotate(117.35 2.252 4.978) scale(.78755)" gradientUnits="userSpaceOnUse"><stop stop-color="#5F93D4"/><stop offset="1" stop-color="#244BB0"/></radialGradient><radialGradient id="g" cx="0" cy="0" r="1" gradientTransform="rotate(117.35 6.992 17.455) scale(.78755)" gradientUnits="userSpaceOnUse"><stop stop-color="#5F93D4"/><stop offset="1" stop-color="#244BB0"/></radialGradient><radialGradient id="h" cx="0" cy="0" r="1" gradientTransform="rotate(117.35 3.666 19.543) scale(.78755)" gradientUnits="userSpaceOnUse"><stop stop-color="#5F93D4"/><stop offset="1" stop-color="#244BB0"/></radialGradient><radialGradient id="i" cx="0" cy="0" r="1" gradientTransform="rotate(117.35 6.47 20.564) scale(.78755)" gradientUnits="userSpaceOnUse"><stop stop-color="#5F93D4"/><stop offset="1" stop-color="#244BB0"/></radialGradient><radialGradient id="j" cx="0" cy="0" r="1" gradientTransform="rotate(117.35 -.77 6.565) scale(.78755)" gradientUnits="userSpaceOnUse"><stop stop-color="#5F93D4"/><stop offset="1" stop-color="#244BB0"/></radialGradient><radialGradient id="l" cx="0" cy="0" r="1" gradientTransform="rotate(131.677 1.07 11.644) scale(1.21695 1.59973)" gradientUnits="userSpaceOnUse"><stop offset=".438" stop-color="#FFE64D"/><stop offset="1" stop-color="#FFE64D" stop-opacity="0"/></radialGradient><radialGradient id="m" cx="0" cy="0" r="1" gradientTransform="matrix(.51451 .40682 -.70929 .89704 8.673 18.526)" gradientUnits="userSpaceOnUse"><stop offset=".329" stop-color="#C4A638"/><stop offset="1" stop-color="#C4A638" stop-opacity="0"/></radialGradient><radialGradient id="o" cx="0" cy="0" r="1" gradientTransform="matrix(-.54058 .60774 -.79882 -.71055 15.652 8.384)" gradientUnits="userSpaceOnUse"><stop offset=".438" stop-color="#FFE64D"/><stop offset="1" stop-color="#FFE64D" stop-opacity="0"/></radialGradient><radialGradient id="p" cx="0" cy="0" r="1" gradientTransform="matrix(.34372 .27201 -.47434 .5994 14.445 8.344)" gradientUnits="userSpaceOnUse"><stop offset=".329" stop-color="#C4A638"/><stop offset="1" stop-color="#C4A638" stop-opacity="0"/></radialGradient><radialGradient id="r" cx="0" cy="0" r="1" gradientTransform="matrix(-.54058 .60774 -.79882 -.71055 21.652 17.384)" gradientUnits="userSpaceOnUse"><stop offset=".438" stop-color="#FFE64D"/><stop offset="1" stop-color="#FFE64D" stop-opacity="0"/></radialGradient><radialGradient id="s" cx="0" cy="0" r="1" gradientTransform="matrix(.34372 .27201 -.47434 .5994 20.445 17.344)" gradientUnits="userSpaceOnUse"><stop offset=".329" stop-color="#C4A638"/><stop offset="1" stop-color="#C4A638" stop-opacity="0"/></radialGradient><radialGradient id="t" cx="0" cy="0" r="1" gradientTransform="matrix(-.54472 .64901 -.71153 -.5972 10.797 13.352)" gradientUnits="userSpaceOnUse"><stop stop-color="#65F1F8"/><stop offset="1" stop-color="#4B9FEC"/></radialGradient><radialGradient id="u" cx="0" cy="0" r="1" gradientTransform="rotate(122.112 -3.517 13.189) scale(1.03233)" gradientUnits="userSpaceOnUse"><stop offset=".281" stop-color="#E3DCE0"/><stop offset="1" stop-color="#B48CD9"/></radialGradient><radialGradient id="v" cx="0" cy="0" r="1" gradientTransform="rotate(17.723 -72.697 27.54) scale(.79557)" gradientUnits="userSpaceOnUse"><stop stop-color="#949198"/><stop offset="1" stop-color="#949198" stop-opacity="0"/></radialGradient><radialGradient id="w" cx="0" cy="0" r="1" gradientTransform="rotate(117.81 9.95 13.661) scale(.80378)" gradientUnits="userSpaceOnUse"><stop stop-color="#FFFFF8"/><stop offset="1" stop-color="#9C7FC3"/></radialGradient><radialGradient id="x" cx="0" cy="0" r="1" gradientTransform="rotate(17.723 -23.714 88.887) scale(.79557)" gradientUnits="userSpaceOnUse"><stop stop-color="#8998A8"/><stop offset="1" stop-color="#8998A8" stop-opacity="0"/></radialGradient><radialGradient id="y" cx="0" cy="0" r="1" gradientTransform="matrix(-.54472 .64901 -.71153 -.5972 18.797 23.352)" gradientUnits="userSpaceOnUse"><stop stop-color="#65F1F8"/><stop offset="1" stop-color="#4B9FEC"/></radialGradient><radialGradient id="z" cx="0" cy="0" r="1" gradientTransform="matrix(-.54472 .64901 -.71153 -.5972 18.798 11.352)" gradientUnits="userSpaceOnUse"><stop stop-color="#65F1F8"/><stop offset="1" stop-color="#4B9FEC"/></radialGradient><radialGradient id="A" cx="0" cy="0" r="1" gradientTransform="rotate(117.81 9.863 8.154) scale(.80378)" gradientUnits="userSpaceOnUse"><stop stop-color="#FFFFF8"/><stop offset="1" stop-color="#9C7FC3"/></radialGradient><radialGradient id="B" cx="0" cy="0" r="1" gradientTransform="rotate(17.723 -.558 68.852) scale(.79557)" gradientUnits="userSpaceOnUse"><stop stop-color="#8998A8"/><stop offset="1" stop-color="#8998A8" stop-opacity="0"/></radialGradient><linearGradient id="a" x1="30" x2="26.264" y1="18.98" y2="18.98" gradientUnits="userSpaceOnUse"><stop offset=".355" stop-color="#453F46"/><stop offset="1" stop-color="#453F46" stop-opacity="0"/></linearGradient><linearGradient id="b" x1="18.046" x2="18.046" y1="30.693" y2="24.837" gradientUnits="userSpaceOnUse"><stop stop-color="#4B286A"/><stop offset="1" stop-color="#4B286A" stop-opacity="0"/></linearGradient><linearGradient id="c" x1="2" x2="6.049" y1="15.39" y2="15.39" gradientUnits="userSpaceOnUse"><stop offset=".445" stop-color="#2C2632"/><stop offset="1" stop-color="#2C2632" stop-opacity="0"/></linearGradient><linearGradient id="d" x1="30.232" x2="2" y1="24.081" y2="24.081" gradientUnits="userSpaceOnUse"><stop offset=".706" stop-color="#3391C5"/><stop offset="1" stop-color="#3391C5" stop-opacity="0"/></linearGradient><filter id="k" width="2.998" height="3.18" x="7.995" y="17.805" color-interpolation-filters="sRGB" filterUnits="userSpaceOnUse"><feFlood flood-opacity="0" result="BackgroundImageFix"/><feBlend in="SourceGraphic" in2="BackgroundImageFix" result="shape"/><feColorMatrix in="SourceAlpha" result="hardAlpha" values="0 0 0 0 0 0 0 0 0 0 0 0 0 0 0 0 0 0 127 0"/><feOffset dy="-.2"/><feGaussianBlur stdDeviation=".25"/><feComposite in2="hardAlpha" k2="-1" k3="1" operator="arithmetic"/><feColorMatrix values="0 0 0 0 0.862745 0 0 0 0 0.67451 0 0 0 0 0.286275 0 0 0 1 0"/><feBlend in2="shape" result="effect1_innerShadow_18_14896"/></filter><filter id="n" width="2.002" height="2.192" x="13.992" y="7.795" color-interpolation-filters="sRGB" filterUnits="userSpaceOnUse"><feFlood flood-opacity="0" result="BackgroundImageFix"/><feBlend in="SourceGraphic" in2="BackgroundImageFix" result="shape"/><feColorMatrix in="SourceAlpha" result="hardAlpha" values="0 0 0 0 0 0 0 0 0 0 0 0 0 0 0 0 0 0 127 0"/><feOffset dy="-.2"/><feGaussianBlur stdDeviation=".25"/><feComposite in2="hardAlpha" k2="-1" k3="1" operator="arithmetic"/><feColorMatrix values="0 0 0 0 0.862745 0 0 0 0 0.67451 0 0 0 0 0.286275 0 0 0 1 0"/><feBlend in2="shape" result="effect1_innerShadow_18_14896"/></filter><filter id="q" width="2.002" height="2.192" x="19.992" y="16.795" color-interpolation-filters="sRGB" filterUnits="userSpaceOnUse"><feFlood flood-opacity="0" result="BackgroundImageFix"/><feBlend in="SourceGraphic" in2="BackgroundImageFix" result="shape"/><feColorMatrix in="SourceAlpha" result="hardAlpha" values="0 0 0 0 0 0 0 0 0 0 0 0 0 0 0 0 0 0 127 0"/><feOffset dy="-.2"/><feGaussianBlur stdDeviation=".25"/><feComposite in2="hardAlpha" k2="-1" k3="1" operator="arithmetic"/><feColorMatrix values="0 0 0 0 0.862745 0 0 0 0 0.67451 0 0 0 0 0.286275 0 0 0 1 0"/><feBlend in2="shape" result="effect1_innerShadow_18_14896"/></filter></defs></g></svg>